<svg width="20" height="20" viewBox="0 0 20 20" fill="none" xmlns="http://www.w3.org/2000/svg">
<path d="M10 18.3333V10" stroke="black" stroke-width="0.833333" stroke-linecap="round" stroke-linejoin="round"/>
<path d="M13.333 14.1667L14.9997 15.8333L18.333 12.5" stroke="black" stroke-width="0.833333" stroke-linecap="round" stroke-linejoin="round"/>
<path d="M17.5 9.27209V6.66626C17.4997 6.37399 17.4225 6.08693 17.2763 5.8339C17.13 5.58086 16.9198 5.37073 16.6667 5.22459L10.8333 1.89126C10.58 1.74498 10.2926 1.66797 10 1.66797C9.70744 1.66797 9.42003 1.74498 9.16667 1.89126L3.33333 5.22459C3.08022 5.37073 2.86998 5.58086 2.72372 5.8339C2.57745 6.08693 2.5003 6.37399 2.5 6.66626V13.3329C2.50045 13.6251 2.57767 13.9119 2.72393 14.1648C2.87018 14.4177 3.08034 14.6277 3.33333 14.7738L9.16667 18.1071C9.41996 18.2535 9.70733 18.3307 9.99989 18.3308C10.2924 18.3309 10.5799 18.2541 10.8333 18.1079L11.9333 17.4804" stroke="black" stroke-width="0.833333" stroke-linecap="round" stroke-linejoin="round"/>
<path d="M2.74121 5.83398L9.99954 10.0007L17.2579 5.83398" stroke="black" stroke-width="0.833333" stroke-linecap="round" stroke-linejoin="round"/>
<path d="M6.25 3.55859L13.7475 7.84859" stroke="black" stroke-width="0.833333" stroke-linecap="round" stroke-linejoin="round"/>
</svg>
