<svg width="18" height="18" viewBox="0 0 18 18" fill="none" xmlns="http://www.w3.org/2000/svg">
<path fill-rule="evenodd" clip-rule="evenodd" d="M10.7895 9.25012C10.6861 8.9576 10.4946 8.70434 10.2412 8.52522C9.98789 8.34611 9.68526 8.24995 9.375 8.25V7.875H8.625V8.25C8.22718 8.25 7.84564 8.40804 7.56434 8.68934C7.28304 8.97064 7.125 9.35218 7.125 9.75C7.125 10.1478 7.28304 10.5294 7.56434 10.8107C7.84564 11.092 8.22718 11.25 8.625 11.25V12.75C8.29875 12.75 8.02088 12.5419 7.91738 12.2501C7.90202 12.2024 7.87725 12.1582 7.84452 12.1202C7.8118 12.0822 7.77179 12.0512 7.72686 12.0289C7.68193 12.0067 7.63299 11.9937 7.58294 11.9906C7.53289 11.9876 7.48275 11.9947 7.43547 12.0114C7.38819 12.0281 7.34474 12.0541 7.3077 12.0879C7.27065 12.1217 7.24075 12.1626 7.21978 12.2081C7.19881 12.2536 7.18718 12.3029 7.18558 12.353C7.18399 12.4032 7.19246 12.4531 7.2105 12.4999C7.31389 12.7924 7.50545 13.0457 7.75878 13.2248C8.01211 13.4039 8.31474 13.5001 8.625 13.5V13.875H9.375V13.5C9.77282 13.5 10.1544 13.342 10.4357 13.0607C10.717 12.7794 10.875 12.3978 10.875 12C10.875 11.6022 10.717 11.2206 10.4357 10.9393C10.1544 10.658 9.77282 10.5 9.375 10.5V9C9.53011 8.99996 9.68141 9.04801 9.80807 9.13754C9.93473 9.22706 10.0305 9.35365 10.0822 9.49988C10.1154 9.59366 10.1844 9.67045 10.2741 9.71335C10.3186 9.73459 10.3667 9.74687 10.4159 9.74949C10.4651 9.75212 10.5143 9.74502 10.5608 9.72863C10.6072 9.71223 10.6499 9.68684 10.6866 9.65392C10.7232 9.621 10.753 9.58118 10.7742 9.53675C10.7955 9.49232 10.8077 9.44414 10.8104 9.39496C10.813 9.34578 10.8059 9.29656 10.7895 9.25012ZM8.625 9C8.42609 9 8.23532 9.07902 8.09467 9.21967C7.95402 9.36032 7.875 9.55109 7.875 9.75C7.875 9.94891 7.95402 10.1397 8.09467 10.2803C8.23532 10.421 8.42609 10.5 8.625 10.5V9ZM9.375 12.75C9.57391 12.75 9.76468 12.671 9.90533 12.5303C10.046 12.3897 10.125 12.1989 10.125 12C10.125 11.8011 10.046 11.6103 9.90533 11.4697C9.76468 11.329 9.57391 11.25 9.375 11.25V12.75Z" fill="black"/>
<path fill-rule="evenodd" clip-rule="evenodd" d="M4.93237 3.23288C5.85262 2.7825 7.36237 2.25 9.01462 2.25C10.6324 2.25 12.1024 2.76037 13.0177 3.20475L13.0695 3.22988C13.3455 3.36638 13.5682 3.49538 13.725 3.6L12.3397 5.625C15.5332 8.88975 18 15.7489 9.01462 15.7489C0.0292425 15.7489 2.42962 9.01425 5.65087 5.625L4.27462 3.6C4.38074 3.53063 4.51537 3.45 4.67587 3.3645C4.75537 3.32175 4.84087 3.27763 4.93237 3.23288ZM11.4495 5.59838L12.5584 3.97725C11.5271 4.0515 10.3001 4.29375 9.11887 4.63575C8.27512 4.8795 7.33762 4.84238 6.46949 4.68225C6.25072 4.64174 6.03346 4.59346 5.81812 4.5375L6.53812 5.59763C8.08124 6.147 9.90599 6.147 11.4495 5.59838ZM6.10499 6.23625C7.91062 6.93375 10.0807 6.93375 11.8864 6.2355C12.6399 7.03017 13.2703 7.93302 13.7569 8.91413C14.2639 9.94838 14.5399 10.9823 14.4949 11.8733C14.4514 12.7331 14.1131 13.4678 13.3406 14.0138C12.5355 14.5826 11.1814 14.9989 9.01424 14.9989C6.84487 14.9989 5.48437 14.5898 4.67174 14.0273C3.89362 13.4884 3.55199 12.7635 3.50362 11.9153C3.45299 11.034 3.72299 10.0054 4.22812 8.964C4.70999 7.971 5.38237 7.01512 6.10499 6.23625ZM5.67374 3.7185C5.97374 3.80775 6.28724 3.88538 6.60524 3.94425C7.41149 4.09275 8.21999 4.1145 8.90999 3.91463C9.71405 3.68029 10.5319 3.49606 11.3587 3.363C10.6687 3.15525 9.86174 3 9.01424 3C7.72237 3 6.51749 3.36038 5.67374 3.7185Z" fill="black"/>
</svg>
