<svg width="16" height="16" viewBox="0 0 16 16" fill="none" xmlns="http://www.w3.org/2000/svg">
<path fill-rule="evenodd" clip-rule="evenodd" d="M7.18207 2.94L2.31207 7.809C2.12562 7.99549 2.02039 8.24807 2.01926 8.51177C2.01814 8.77546 2.12122 9.02893 2.30607 9.217L6.67607 13.667C6.862 13.8561 7.11542 13.9636 7.38058 13.9658C7.64575 13.9681 7.90095 13.8649 8.09007 13.679L13.0501 8.811C13.1924 8.67149 13.3055 8.50501 13.3828 8.32129C13.46 8.13758 13.4999 7.9403 13.5001 7.741V3.5C13.5001 3.23478 13.3947 2.98043 13.2072 2.79289C13.0196 2.60536 12.7653 2.5 12.5001 2.5H8.24307C8.04598 2.50004 7.85084 2.53892 7.66878 2.61442C7.48673 2.68992 7.32134 2.80055 7.18207 2.94ZM14.1021 9.882C14.3865 9.60269 14.6124 9.2695 14.7666 8.90189C14.9208 8.53428 15.0001 8.13963 15.0001 7.741V3.5C15.0001 2.83696 14.7367 2.20107 14.2678 1.73223C13.799 1.26339 13.1631 1 12.5001 1H8.24307C7.84897 0.999953 7.45872 1.07756 7.09461 1.22838C6.73051 1.3792 6.3997 1.60029 6.12107 1.879L1.25107 6.749C0.785262 7.21517 0.522363 7.84641 0.519554 8.50541C0.516745 9.16442 0.774253 9.79787 1.23607 10.268L5.60607 14.718C6.07063 15.1909 6.70402 15.46 7.36694 15.466C8.02986 15.472 8.66802 15.2145 9.14107 14.75L14.1021 9.882ZM10.3821 4.558C10.0667 4.35449 9.70951 4.22461 9.33707 4.178C9.04209 4.14368 8.74316 4.1772 8.4631 4.27598C8.18304 4.37476 7.92924 4.53621 7.72107 4.748C7.18107 5.288 7.16107 5.978 7.28407 6.515C7.40307 7.041 7.67807 7.544 7.92107 7.925C8.17507 8.325 8.38107 8.657 8.47007 8.958C8.54307 9.207 8.50607 9.31 8.39807 9.418C8.32607 9.49 8.21607 9.542 7.98107 9.484C7.72807 9.42 7.41207 9.237 7.12607 8.951C6.8888 8.70895 6.72601 8.40386 6.65707 8.072C6.58807 7.743 6.63407 7.502 6.69107 7.392C6.73886 7.30448 6.76871 7.20831 6.77889 7.10911C6.78907 7.00991 6.77936 6.90968 6.75034 6.81428C6.72131 6.71887 6.67356 6.63022 6.60986 6.55349C6.54616 6.47677 6.46781 6.41352 6.37937 6.36744C6.29094 6.32136 6.1942 6.29338 6.09483 6.28513C5.99545 6.27689 5.89543 6.28854 5.80061 6.31942C5.70579 6.35029 5.61808 6.39976 5.5426 6.46494C5.46713 6.53011 5.40542 6.60969 5.36107 6.699C5.09807 7.205 5.07207 7.824 5.18907 8.381C5.25907 8.713 5.38507 9.051 5.57107 9.369L5.31807 9.621C5.18138 9.76239 5.10569 9.9518 5.10731 10.1485C5.10893 10.3451 5.18771 10.5332 5.3267 10.6724C5.4657 10.8115 5.65377 10.8905 5.85042 10.8923C6.04706 10.8941 6.23655 10.8186 6.37807 10.682L6.60007 10.461C6.90742 10.6811 7.25243 10.8431 7.61807 10.939C8.21807 11.089 8.91907 11.018 9.45807 10.479C10.0701 9.867 10.0841 9.133 9.90907 8.536C9.75607 8.014 9.43707 7.514 9.21507 7.166L9.18607 7.12C8.97307 6.786 8.80807 6.456 8.74607 6.183C8.68607 5.922 8.74407 5.846 8.78207 5.809C8.83131 5.75582 8.89266 5.71533 8.96091 5.69095C9.02916 5.66658 9.10228 5.65905 9.17407 5.669C9.34607 5.689 9.61907 5.795 9.95107 6.126C10.2811 6.456 10.3981 6.726 10.4331 6.916C10.466 7.08977 10.4425 7.26951 10.3661 7.429C10.3216 7.51887 10.2955 7.61675 10.2895 7.71686C10.2835 7.81697 10.2976 7.91727 10.331 8.01183C10.3644 8.10639 10.4165 8.19328 10.484 8.26738C10.5516 8.34147 10.6334 8.40125 10.7245 8.44319C10.8156 8.48513 10.9142 8.50837 11.0144 8.51154C11.1147 8.51471 11.2145 8.49774 11.3081 8.46164C11.4017 8.42554 11.487 8.37104 11.5592 8.30137C11.6313 8.23169 11.6887 8.14826 11.7281 8.056C11.9081 7.664 12.0091 7.177 11.9071 6.636C11.833 6.26312 11.681 5.91008 11.4611 5.6L11.6821 5.379C11.7558 5.31034 11.8149 5.22754 11.8558 5.13554C11.8968 5.04354 11.9189 4.94423 11.9207 4.84352C11.9224 4.74282 11.9039 4.64279 11.8662 4.5494C11.8285 4.45601 11.7723 4.37118 11.7011 4.29996C11.6299 4.22874 11.5451 4.1726 11.4517 4.13488C11.3583 4.09716 11.2582 4.07863 11.1575 4.08041C11.0568 4.08219 10.9575 4.10423 10.8655 4.14522C10.7735 4.18621 10.6907 4.24531 10.6221 4.319L10.3821 4.558Z" fill="#404040"/>
</svg>
