<svg width="20" height="20" viewBox="0 0 20 20" fill="none" xmlns="http://www.w3.org/2000/svg">
<path d="M9.57246 17.0846V15.3896C8.85746 15.2974 8.24329 15.0499 7.72996 14.6471C7.21663 14.2444 6.83496 13.6871 6.58496 12.9755L7.35746 12.6388C7.59802 13.2627 7.92857 13.7432 8.34913 14.0805C8.76968 14.4177 9.33968 14.5857 10.0591 14.5846C10.6925 14.5846 11.2713 14.4269 11.7958 14.1113C12.3202 13.7957 12.5822 13.2869 12.5816 12.5846C12.5816 11.9919 12.3889 11.5157 12.0033 11.1563C11.6172 10.7969 10.8955 10.4471 9.83829 10.1071C8.76107 9.76436 8.00302 9.37269 7.56413 8.93214C7.12524 8.49102 6.90579 7.91686 6.90579 7.20964C6.90579 6.43519 7.20274 5.81658 7.79663 5.3538C8.39052 4.89158 8.98218 4.64158 9.57163 4.6038V2.91797H10.405V4.6038C10.9822 4.66158 11.4777 4.82158 11.8916 5.0838C12.3055 5.34602 12.6488 5.71908 12.9216 6.20297L12.1808 6.5813C11.9825 6.22241 11.7091 5.93186 11.3608 5.70964C11.0125 5.48741 10.5691 5.3763 10.0308 5.3763C9.38746 5.3763 8.84468 5.54658 8.40246 5.88714C7.96024 6.22714 7.73913 6.66797 7.73913 7.20964C7.73913 7.7213 7.92052 8.13575 8.28329 8.45297C8.64663 8.77075 9.37441 9.10214 10.4666 9.44714C11.4777 9.76714 12.2222 10.1785 12.7 10.6813C13.1766 11.1841 13.415 11.8152 13.415 12.5746C13.415 13.4113 13.1205 14.076 12.5316 14.5688C11.9427 15.0616 11.2339 15.3382 10.405 15.3988V17.0846H9.57246Z" fill="black"/>
</svg>
