<svg width="20" height="20" viewBox="0 0 20 20" fill="none" xmlns="http://www.w3.org/2000/svg">
<path d="M7.19134 16.6654C6.12023 16.6654 5.2094 16.2901 4.45884 15.5395C3.70829 14.789 3.33301 13.8779 3.33301 12.8062C3.33301 12.3534 3.40995 11.9145 3.56384 11.4895C3.71773 11.0645 3.93995 10.677 4.23051 10.327L7.15717 6.81286L5.42384 3.33203H14.5755L12.8422 6.81286L15.7688 10.327C16.0594 10.6765 16.2816 11.0637 16.4355 11.4887C16.5894 11.9143 16.6663 12.3534 16.6663 12.8062C16.6663 13.8779 16.2902 14.789 15.538 15.5395C14.7858 16.2901 13.8758 16.6654 12.808 16.6654H7.19134ZM9.99967 12.8987C9.6269 12.8987 9.3094 12.7679 9.04718 12.5062C8.78495 12.244 8.65384 11.9265 8.65384 11.5537C8.65384 11.1804 8.78495 10.8626 9.04718 10.6004C9.3094 10.3381 9.6269 10.207 9.99967 10.207C10.3725 10.207 10.69 10.3381 10.9522 10.6004C11.2144 10.8626 11.3455 11.1804 11.3455 11.5537C11.3455 11.927 11.2144 12.2445 10.9522 12.5062C10.69 12.7679 10.3725 12.8987 9.99967 12.8987ZM7.92467 6.45703H12.0913L13.2288 4.16536H6.77051L7.92467 6.45703ZM7.19134 15.832H12.808C13.6525 15.832 14.3677 15.5365 14.9538 14.9454C15.54 14.3543 15.833 13.6412 15.833 12.8062C15.833 12.4518 15.7738 12.1073 15.6555 11.7729C15.5372 11.4384 15.3636 11.1362 15.1347 10.8662L12.1513 7.29036H7.86801L4.88134 10.8612C4.65134 11.1323 4.47467 11.4356 4.35134 11.7712C4.22801 12.1068 4.16634 12.4518 4.16634 12.8062C4.16634 13.6406 4.46217 14.3537 5.05384 14.9454C5.64495 15.5365 6.35745 15.832 7.19134 15.832Z" fill="black"/>
</svg>
