<svg width="16" height="16" viewBox="0 0 16 16" fill="none" xmlns="http://www.w3.org/2000/svg">
<path d="M13.5 2H0.5V12H13.5V2ZM12.5 11H1.5V3H12.5V11Z" fill="black"/>
<path d="M14.5 4.5V13H3V14H15.5V4.5H14.5Z" fill="black"/>
<path d="M7 9.45187C8.24062 9.45187 9.25 8.35384 9.25 7.00419C9.25 5.65453 8.24062 4.5565 7 4.5565C5.75938 4.5565 4.75 5.6545 4.75 7.00419C4.75 8.35388 5.75938 9.45187 7 9.45187ZM7 5.5565C7.68925 5.5565 8.25 6.20594 8.25 7.00419C8.25 7.80244 7.68925 8.45187 7 8.45187C6.31075 8.45187 5.75 7.80244 5.75 7.00419C5.75 6.20594 6.31075 5.5565 7 5.5565ZM2.5 4.25H3.5V9.75H2.5V4.25ZM10.5 4.25H11.5V9.75H10.5V4.25Z" fill="black"/>
</svg>
