<svg width="20" height="20" viewBox="0 0 20 20" fill="none" xmlns="http://www.w3.org/2000/svg">
<path d="M10.0003 9.16732C10.7559 9.16732 11.4531 9.35343 12.092 9.72565C12.7309 10.0979 13.2364 10.6034 13.6087 11.2423C13.9809 11.8812 14.167 12.5784 14.167 13.334V18.334H12.5003V13.334C12.5003 12.9007 12.3948 12.4979 12.1837 12.1257C11.9725 11.7534 11.6892 11.4534 11.3337 11.2257C10.9781 10.9979 10.5837 10.8673 10.1503 10.834H10.0003C9.56699 10.834 9.16421 10.9395 8.79199 11.1507C8.41977 11.3618 8.11977 11.6451 7.89199 12.0007C7.66421 12.3562 7.53366 12.7507 7.50033 13.184V18.334H5.83366V13.334C5.83366 12.5784 6.01977 11.8812 6.39199 11.2423C6.76421 10.6034 7.26977 10.0979 7.90866 9.72565C8.54755 9.35343 9.24477 9.16732 10.0003 9.16732ZM4.58366 11.6673C4.81699 11.6673 5.04477 11.6951 5.26699 11.7507C5.12255 12.1729 5.03366 12.6062 5.00033 13.0507V13.4007C4.90033 13.3673 4.80033 13.3451 4.70033 13.334H4.58366C4.26144 13.334 3.98088 13.4423 3.74199 13.659C3.5031 13.8757 3.36699 14.1451 3.33366 14.4673V14.584V18.334H1.66699V14.584C1.66699 14.0507 1.79755 13.5618 2.05866 13.1173C2.31977 12.6729 2.67255 12.3201 3.11699 12.059C3.56144 11.7979 4.05033 11.6673 4.58366 11.6673ZM15.417 11.6673C15.9503 11.6673 16.4392 11.7979 16.8837 12.059C17.3281 12.3201 17.6809 12.6729 17.942 13.1173C18.2031 13.5618 18.3337 14.0507 18.3337 14.584V18.334H16.667V14.584C16.667 14.2618 16.5587 13.9812 16.342 13.7423C16.1253 13.5034 15.8559 13.3673 15.5337 13.334H15.417C15.2725 13.334 15.1337 13.3562 15.0003 13.4007V13.334C15.0003 12.7895 14.917 12.2618 14.7503 11.7507C14.9614 11.6951 15.1837 11.6673 15.417 11.6673ZM4.58366 6.66732C4.96144 6.66732 5.30866 6.76176 5.62533 6.95065C5.94199 7.13954 6.19477 7.39232 6.38366 7.70898C6.57255 8.02565 6.66699 8.37287 6.66699 8.75065C6.66699 9.12843 6.57255 9.47565 6.38366 9.79232C6.19477 10.109 5.94199 10.3618 5.62533 10.5507C5.30866 10.7395 4.96144 10.834 4.58366 10.834C4.20588 10.834 3.85866 10.7395 3.54199 10.5507C3.22533 10.3618 2.97255 10.109 2.78366 9.79232C2.59477 9.47565 2.50033 9.12843 2.50033 8.75065C2.50033 8.37287 2.59477 8.02565 2.78366 7.70898C2.97255 7.39232 3.22533 7.13954 3.54199 6.95065C3.85866 6.76176 4.20588 6.66732 4.58366 6.66732ZM15.417 6.66732C15.7948 6.66732 16.142 6.76176 16.4587 6.95065C16.7753 7.13954 17.0281 7.39232 17.217 7.70898C17.4059 8.02565 17.5003 8.37287 17.5003 8.75065C17.5003 9.12843 17.4059 9.47565 17.217 9.79232C17.0281 10.109 16.7753 10.3618 16.4587 10.5507C16.142 10.7395 15.7948 10.834 15.417 10.834C15.0392 10.834 14.692 10.7395 14.3753 10.5507C14.0587 10.3618 13.8059 10.109 13.617 9.79232C13.4281 9.47565 13.3337 9.12843 13.3337 8.75065C13.3337 8.37287 13.4281 8.02565 13.617 7.70898C13.8059 7.39232 14.0587 7.13954 14.3753 6.95065C14.692 6.76176 15.0392 6.66732 15.417 6.66732ZM4.58366 8.33398C4.47255 8.33398 4.37533 8.37565 4.29199 8.45898C4.20866 8.54232 4.16699 8.63954 4.16699 8.75065C4.16699 8.86176 4.20866 8.95898 4.29199 9.04232C4.37533 9.12565 4.47255 9.16732 4.58366 9.16732C4.69477 9.16732 4.79199 9.12565 4.87533 9.04232C4.95866 8.95898 5.00033 8.86176 5.00033 8.75065C5.00033 8.63954 4.95866 8.54232 4.87533 8.45898C4.79199 8.37565 4.69477 8.33398 4.58366 8.33398ZM15.417 8.33398C15.3059 8.33398 15.2087 8.37565 15.1253 8.45898C15.042 8.54232 15.0003 8.63954 15.0003 8.75065C15.0003 8.86176 15.042 8.95898 15.1253 9.04232C15.2087 9.12565 15.3059 9.16732 15.417 9.16732C15.5281 9.16732 15.6253 9.12565 15.7087 9.04232C15.792 8.95898 15.8337 8.86176 15.8337 8.75065C15.8337 8.63954 15.792 8.54232 15.7087 8.45898C15.6253 8.37565 15.5281 8.33398 15.417 8.33398ZM10.0003 1.66732C10.6003 1.66732 11.1559 1.81732 11.667 2.11732C12.1781 2.41732 12.5837 2.82287 12.8837 3.33398C13.1837 3.84509 13.3337 4.40065 13.3337 5.00065C13.3337 5.60065 13.1837 6.15621 12.8837 6.66732C12.5837 7.17843 12.1781 7.58398 11.667 7.88398C11.1559 8.18398 10.6003 8.33398 10.0003 8.33398C9.40033 8.33398 8.84477 8.18398 8.33366 7.88398C7.82255 7.58398 7.41699 7.17843 7.11699 6.66732C6.81699 6.15621 6.66699 5.60065 6.66699 5.00065C6.66699 4.40065 6.81699 3.84509 7.11699 3.33398C7.41699 2.82287 7.82255 2.41732 8.33366 2.11732C8.84477 1.81732 9.40033 1.66732 10.0003 1.66732ZM10.0003 3.33398C9.70033 3.33398 9.42255 3.40898 9.16699 3.55898C8.91144 3.70898 8.70866 3.91176 8.55866 4.16732C8.40866 4.42287 8.33366 4.70065 8.33366 5.00065C8.33366 5.30065 8.40866 5.57843 8.55866 5.83398C8.70866 6.08954 8.91144 6.29232 9.16699 6.44232C9.42255 6.59232 9.70033 6.66732 10.0003 6.66732C10.3003 6.66732 10.5781 6.59232 10.8337 6.44232C11.0892 6.29232 11.292 6.08954 11.442 5.83398C11.592 5.57843 11.667 5.30065 11.667 5.00065C11.667 4.70065 11.592 4.42287 11.442 4.16732C11.292 3.91176 11.0892 3.70898 10.8337 3.55898C10.5781 3.40898 10.3003 3.33398 10.0003 3.33398Z" fill="#2563EB"/>
</svg>
