<svg width="20" height="20" viewBox="0 0 20 20" fill="none" xmlns="http://www.w3.org/2000/svg">
<path d="M1.25 18.75C1.25 17.5389 1.55556 16.4167 2.16667 15.3833C2.75556 14.3833 3.55 13.5889 4.55 13C5.58333 12.3889 6.70556 12.0833 7.91667 12.0833C9.12778 12.0833 10.25 12.3889 11.2833 13C12.2833 13.5889 13.0778 14.3833 13.6667 15.3833C14.2778 16.4167 14.5833 17.5389 14.5833 18.75H12.9167C12.9167 17.85 12.6889 17.0111 12.2333 16.2333C11.7889 15.4778 11.1889 14.8778 10.4333 14.4333C9.65556 13.9778 8.81667 13.75 7.91667 13.75C7.01667 13.75 6.17778 13.9778 5.4 14.4333C4.64444 14.8778 4.04444 15.4778 3.6 16.2333C3.14444 17.0111 2.91667 17.85 2.91667 18.75H1.25ZM7.91667 11.25C7.00556 11.25 6.16667 11.0222 5.4 10.5667C4.64444 10.1222 4.04444 9.52222 3.6 8.76667C3.14444 8 2.91667 7.16111 2.91667 6.25C2.91667 5.33889 3.14444 4.5 3.6 3.73333C4.04444 2.97778 4.64444 2.37778 5.4 1.93333C6.16667 1.47778 7.00556 1.25 7.91667 1.25C8.82778 1.25 9.66667 1.47778 10.4333 1.93333C11.1889 2.37778 11.7889 2.97778 12.2333 3.73333C12.6889 4.5 12.9167 5.33889 12.9167 6.25C12.9167 7.16111 12.6889 8 12.2333 8.76667C11.7889 9.52222 11.1889 10.1222 10.4333 10.5667C9.66667 11.0222 8.82778 11.25 7.91667 11.25ZM7.91667 9.58333C8.51667 9.58333 9.07222 9.43333 9.58333 9.13333C10.0944 8.83333 10.5 8.42778 10.8 7.91667C11.1 7.40555 11.25 6.85 11.25 6.25C11.25 5.65 11.1 5.09444 10.8 4.58333C10.5 4.07222 10.0944 3.66667 9.58333 3.36667C9.07222 3.06667 8.51667 2.91667 7.91667 2.91667C7.31667 2.91667 6.76111 3.06667 6.25 3.36667C5.73889 3.66667 5.33333 4.07222 5.03333 4.58333C4.73333 5.09444 4.58333 5.65 4.58333 6.25C4.58333 6.85 4.73333 7.40555 5.03333 7.91667C5.33333 8.42778 5.73889 8.83333 6.25 9.13333C6.76111 9.43333 7.31667 9.58333 7.91667 9.58333ZM14.8167 12.6667C15.5944 13.0111 16.2806 13.4917 16.875 14.1083C17.4694 14.725 17.9278 15.4222 18.25 16.2C18.5833 17.0111 18.75 17.8611 18.75 18.75H17.0833C17.0833 17.75 16.8111 16.8333 16.2667 16C15.7333 15.1889 15.0222 14.5833 14.1333 14.1833L14.8167 12.6667ZM14.25 3.26667C15.0944 3.61111 15.7778 4.16667 16.3 4.93333C16.8222 5.7 17.0833 6.55556 17.0833 7.5C17.0833 8.28889 16.9 9.01944 16.5333 9.69167C16.1667 10.3639 15.6639 10.9111 15.025 11.3333C14.3861 11.7556 13.6833 12 12.9167 12.0667V10.3833C13.3833 10.3167 13.8083 10.1472 14.1917 9.875C14.575 9.60278 14.875 9.25833 15.0917 8.84167C15.3083 8.425 15.4167 7.97778 15.4167 7.5C15.4167 6.93333 15.2667 6.41667 14.9667 5.95C14.6667 5.48333 14.2722 5.12778 13.7833 4.88333L14.25 3.26667Z" fill="#9333EA"/>
</svg>
