<svg width="20" height="20" viewBox="0 0 20 20" fill="none" xmlns="http://www.w3.org/2000/svg">
<path d="M10.834 14.1167V15.8333H15.0007V17.5H5.00065V15.8333H9.16732V14.1167C8.07843 13.9833 7.08954 13.6056 6.20065 12.9833C5.31176 12.3611 4.61732 11.5778 4.11732 10.6333C3.5951 9.65556 3.33398 8.61111 3.33398 7.5V2.5H16.6673V7.5C16.6673 8.61111 16.4062 9.65556 15.884 10.6333C15.384 11.5778 14.6895 12.3611 13.8007 12.9833C12.9118 13.6056 11.9229 13.9833 10.834 14.1167ZM5.00065 4.16667V7.5C5.00065 8.4 5.22843 9.23889 5.68398 10.0167C6.12843 10.7722 6.72843 11.3722 7.48398 11.8167C8.26176 12.2722 9.10065 12.5 10.0007 12.5C10.9007 12.5 11.7395 12.2722 12.5173 11.8167C13.2729 11.3722 13.8729 10.7722 14.3173 10.0167C14.7729 9.23889 15.0007 8.4 15.0007 7.5V4.16667H5.00065ZM0.833984 4.16667H2.50065V7.5H0.833984V4.16667ZM17.5007 4.16667H19.1673V7.5H17.5007V4.16667Z" fill="#CA8A04"/>
</svg>
